<svg width="20" height="21" viewBox="0 0 20 21" fill="none" xmlns="http://www.w3.org/2000/svg">
<path d="M9.16675 11.3335H13.3334M6.66675 11.3335H6.67423M10.8334 14.6668H6.66675M13.3334 14.6668H13.3259" stroke="#228B22" stroke-width="1.5" stroke-linecap="round" stroke-linejoin="round"/>
<path d="M2.08325 10.7027C2.08325 7.07162 2.08325 5.25607 3.12669 4.12803C4.17012 3 5.84949 3 9.20825 3H10.7916C14.1503 3 15.8298 3 16.8732 4.12803C17.9166 5.25607 17.9166 7.07162 17.9166 10.7027V11.1307C17.9166 14.7617 17.9166 16.5772 16.8732 17.7053C15.8298 18.8333 14.1503 18.8333 10.7916 18.8333H9.20825C5.84949 18.8333 4.17012 18.8333 3.12669 17.7053C2.08325 16.5772 2.08325 14.7617 2.08325 11.1307V10.7027Z" stroke="#228B22" stroke-width="1.5" stroke-linecap="round" stroke-linejoin="round"/>
<path d="M2.5 7.1665H17.5" stroke="#228B22" stroke-width="1.5" stroke-linecap="round" stroke-linejoin="round"/>
</svg>
