<svg width="48" height="49" viewBox="0 0 48 49" fill="none" xmlns="http://www.w3.org/2000/svg">
<path d="M22 26.5H32M16 26.5H16.018M26 34.5H16M32 34.5H31.982" stroke="#F7BF39" stroke-width="2.5" stroke-linecap="round" stroke-linejoin="round"/>
<path d="M36 4.5V8.5M12 4.5V8.5" stroke="#F7BF39" stroke-width="1.5" stroke-linecap="round" stroke-linejoin="round"/>
<path d="M5 24.9864C5 16.2719 5 11.9146 7.50424 9.20728C10.0085 6.5 14.039 6.5 22.1 6.5H25.9C33.961 6.5 37.9916 6.5 40.4958 9.20728C43 11.9146 43 16.2719 43 24.9864V26.0136C43 34.7282 43 39.0854 40.4958 41.7928C37.9916 44.5 33.961 44.5 25.9 44.5H22.1C14.039 44.5 10.0085 44.5 7.50424 41.7928C5 39.0854 5 34.7282 5 26.0136V24.9864Z" stroke="#F7BF39" stroke-width="2.5" stroke-linecap="round" stroke-linejoin="round"/>
<path d="M6 16.5H42" stroke="#F7BF39" stroke-width="2.5" stroke-linecap="round" stroke-linejoin="round"/>
</svg>
