<svg width="20" height="20" viewBox="0 0 20 20" fill="none" xmlns="http://www.w3.org/2000/svg">
<g opacity="0.5">
<path d="M9.16675 10.8335H13.3334M6.66675 10.8335H6.67423M10.8334 14.1668H6.66675M13.3334 14.1668H13.3259" stroke="#141B34" stroke-opacity="0.8" stroke-width="1.5" stroke-linecap="round" stroke-linejoin="round"/>
<path d="M2.08325 10.2027C2.08325 6.57162 2.08325 4.75607 3.12669 3.62803C4.17012 2.5 5.84949 2.5 9.20825 2.5H10.7916C14.1503 2.5 15.8298 2.5 16.8732 3.62803C17.9166 4.75607 17.9166 6.57162 17.9166 10.2027V10.6307C17.9166 14.2617 17.9166 16.0773 16.8732 17.2053C15.8298 18.3333 14.1503 18.3333 10.7916 18.3333H9.20825C5.84949 18.3333 4.17012 18.3333 3.12669 17.2053C2.08325 16.0773 2.08325 14.2617 2.08325 10.6307V10.2027Z" stroke="#141B34" stroke-opacity="0.8" stroke-width="1.5" stroke-linecap="round" stroke-linejoin="round"/>
<path d="M2.5 6.6665H17.5" stroke="#141B34" stroke-opacity="0.8" stroke-width="1.5" stroke-linecap="round" stroke-linejoin="round"/>
</g>
</svg>
